<svg xmlns="http://www.w3.org/2000/svg" viewBox="0 0 200 200">
<g transform="translate(100,100)">
<circle cx="0" cy="0" r="90" fill="#ffffff" stroke="#111111" stroke-width="7"/>
<path d="M -90,-30 C -60,-40 60,-40 90,-30" fill="none" stroke="#111111" stroke-width="5" stroke-linecap="round"/>
<line x1="-90" y1="0" x2="90" y2="0" stroke="#111111" stroke-width="5"/>
<path d="M -90,30 C -60,40 60,40 90,30" fill="none" stroke="#111111" stroke-width="5" stroke-linecap="round"/>
<ellipse cx="0" cy="0" rx="38" ry="90" fill="none" stroke="#111111" stroke-width="5"/>
<path d="M -68,0 C -68,-30 -14,-30 0,0 C 14,30 68,30 68,0 C 68,-30 14,-30 0,0 C -14,30 -68,30 -68,0 Z" fill="#22CC22" fill-rule="evenodd" stroke="#111111" stroke-width="6" stroke-linecap="round" stroke-linejoin="round"/>
<path d="M -55,-46 C -30,-72 30,-72 55,-46" fill="none" stroke="#111111" stroke-width="5" stroke-linecap="round"/>
<path d="M -55,46 C -30,72 30,72 55,46" fill="none" stroke="#111111" stroke-width="5" stroke-linecap="round"/>
</g>
</svg>
